<?xml version="1.0" encoding="UTF-8"?>
<svg id="Ebene_1" data-name="Ebene 1" xmlns="http://www.w3.org/2000/svg" xmlns:xlink="http://www.w3.org/1999/xlink" viewBox="0 0 948.61 952">
  <defs>
    <style>
      .cls-1 {
        fill: #f1774b;
      }

      .cls-1, .cls-2, .cls-3, .cls-4, .cls-5, .cls-6, .cls-7, .cls-8, .cls-9, .cls-10, .cls-11, .cls-12, .cls-13, .cls-14, .cls-15, .cls-16, .cls-17, .cls-18, .cls-19, .cls-20, .cls-21, .cls-22, .cls-23, .cls-24, .cls-25 {
        stroke-width: 0px;
      }

      .cls-2 {
        fill: url(#LuriCore-7);
      }

      .cls-3 {
        fill: url(#LuriCore-2);
      }

      .cls-4 {
        fill: #f1ac93;
      }

      .cls-5 {
        fill: url(#Orchidee-3);
      }

      .cls-6 {
        fill: url(#Unbenannter_Verlauf_48);
      }

      .cls-7 {
        fill: url(#LuriCore-6);
      }

      .cls-8 {
        fill: url(#LuriCore);
      }

      .cls-9 {
        fill: url(#LuriCore-4);
      }

      .cls-10 {
        fill: url(#LuriCore-5);
      }

      .cls-11 {
        fill: url(#Orchidee-4);
      }

      .cls-12 {
        fill: url(#LuriCore-9);
      }

      .cls-13 {
        fill: url(#LuriCore-8);
      }

      .cls-14 {
        fill: #cb3400;
      }

      .cls-15 {
        fill: url(#LuriCore-10);
      }

      .cls-16 {
        fill: #fff;
      }

      .cls-17 {
        fill: #f18159;
      }

      .cls-18 {
        fill: #bd4317;
      }

      .cls-19 {
        fill: url(#Orchidee-2);
      }

      .cls-20 {
        fill: url(#Neues_Verlaufsfeld_1);
      }

      .cls-21 {
        fill: url(#Orchidee);
      }

      .cls-26 {
        fill: none;
        stroke: url(#Unbenannter_Verlauf_2);
        stroke-linecap: round;
        stroke-miterlimit: 10;
        stroke-width: 15px;
      }

      .cls-22 {
        fill: url(#LuriCore-3);
      }

      .cls-23 {
        fill: #07002a;
      }

      .cls-24 {
        fill: #f1a185;
      }

      .cls-25 {
        fill: url(#Neues_Verlaufsfeld_1-2);
      }
    </style>
    <linearGradient id="LuriCore" x1="173.89" y1="254.6" x2="747.54" y2="254.6" gradientUnits="userSpaceOnUse">
      <stop offset=".19" stop-color="#cb3400"/>
      <stop offset=".21" stop-color="#c93809"/>
      <stop offset=".29" stop-color="#c44526"/>
      <stop offset=".37" stop-color="#c04f3d"/>
      <stop offset=".46" stop-color="#bd564d"/>
      <stop offset=".56" stop-color="#bb5a56"/>
      <stop offset=".69" stop-color="#bb5c5a"/>
      <stop offset=".98" stop-color="#fff"/>
    </linearGradient>
    <linearGradient id="LuriCore-2" data-name="LuriCore" x1="764.56" y1="347.25" x2="790.13" y2="347.25" xlink:href="#LuriCore"/>
    <linearGradient id="LuriCore-3" data-name="LuriCore" x1="257.27" y1="680.51" x2="795.76" y2="680.51" xlink:href="#LuriCore"/>
    <linearGradient id="Unbenannter_Verlauf_2" data-name="Unbenannter Verlauf 2" x1="433.25" y1="530.14" x2="584.75" y2="617.61" gradientUnits="userSpaceOnUse">
      <stop offset=".57" stop-color="#fff"/>
      <stop offset=".6" stop-color="#e4ebf6"/>
      <stop offset=".69" stop-color="#94b0db"/>
      <stop offset=".77" stop-color="#5482c6"/>
      <stop offset=".83" stop-color="#2660b6"/>
      <stop offset=".88" stop-color="#0a4bad"/>
      <stop offset=".91" stop-color="#04a"/>
    </linearGradient>
    <linearGradient id="LuriCore-4" data-name="LuriCore" x1="112.62" y1="595.39" x2="868.75" y2="240.29" xlink:href="#LuriCore"/>
    <linearGradient id="LuriCore-5" data-name="LuriCore" x1="170.57" y1="694.79" x2="915.86" y2="335.57" xlink:href="#LuriCore"/>
    <linearGradient id="Unbenannter_Verlauf_48" data-name="Unbenannter Verlauf 48" x1="363.67" y1="265.35" x2="569.53" y2="621.9" gradientUnits="userSpaceOnUse">
      <stop offset=".41" stop-color="#fff"/>
      <stop offset=".47" stop-color="#f9fafd"/>
      <stop offset=".54" stop-color="#e9eff7"/>
      <stop offset=".62" stop-color="#cfdbef"/>
      <stop offset=".71" stop-color="#aac1e2"/>
      <stop offset=".8" stop-color="#7b9ed3"/>
      <stop offset=".9" stop-color="#4174bf"/>
      <stop offset="1" stop-color="#04a"/>
    </linearGradient>
    <linearGradient id="Orchidee" x1="0" y1="458.9" x2="62" y2="458.9" gradientTransform="translate(0 12)" gradientUnits="userSpaceOnUse">
      <stop offset="0" stop-color="#ff7bac"/>
      <stop offset=".22" stop-color="#ff7bac" stop-opacity=".76"/>
      <stop offset=".6" stop-color="#ff7bac" stop-opacity=".36"/>
      <stop offset=".87" stop-color="#ff7bac" stop-opacity=".1"/>
      <stop offset="1" stop-color="#ff7bac" stop-opacity="0"/>
    </linearGradient>
    <linearGradient id="Orchidee-2" data-name="Orchidee" x1="886.61" y1="471" x2="948.61" y2="471" gradientTransform="matrix(1,0,0,1,0,0)" xlink:href="#Orchidee"/>
    <linearGradient id="Orchidee-3" data-name="Orchidee" x1="437.61" y1="56" x2="499.61" y2="56" gradientTransform="translate(13 -25)" xlink:href="#Orchidee"/>
    <linearGradient id="Orchidee-4" data-name="Orchidee" x1="-452.38" y1="42" x2="-390.38" y2="42" gradientTransform="translate(903 879)" xlink:href="#Orchidee"/>
    <linearGradient id="LuriCore-6" data-name="LuriCore" x1="228" y1="325.97" x2="244" y2="325.97" xlink:href="#LuriCore"/>
    <linearGradient id="LuriCore-7" data-name="LuriCore" x1="228.97" y1="416.18" x2="255.01" y2="416.18" xlink:href="#LuriCore"/>
    <linearGradient id="LuriCore-8" data-name="LuriCore" x1="384.97" y1="243.18" x2="411" y2="243.18" xlink:href="#LuriCore"/>
    <linearGradient id="LuriCore-9" data-name="LuriCore" x1="397.87" y1="621.81" x2="423.87" y2="621.81" xlink:href="#LuriCore"/>
    <linearGradient id="LuriCore-10" data-name="LuriCore" x1="364.87" y1="330.89" x2="383" y2="330.89" xlink:href="#LuriCore"/>
    <linearGradient id="Neues_Verlaufsfeld_1" data-name="Neues Verlaufsfeld 1" x1="92.52" y1="319.35" x2="797.98" y2="319.35" gradientUnits="userSpaceOnUse">
      <stop offset=".19" stop-color="#07002a"/>
      <stop offset=".21" stop-color="#060534"/>
      <stop offset=".27" stop-color="#041858"/>
      <stop offset=".34" stop-color="#022876"/>
      <stop offset=".41" stop-color="#01348d"/>
      <stop offset=".49" stop-color="#003d9d"/>
      <stop offset=".57" stop-color="#0042a6"/>
      <stop offset=".69" stop-color="#04a"/>
      <stop offset=".98" stop-color="#fff"/>
    </linearGradient>
    <linearGradient id="Neues_Verlaufsfeld_1-2" data-name="Neues Verlaufsfeld 1" x1="208.8" y1="572.17" x2="872" y2="572.17" xlink:href="#Neues_Verlaufsfeld_1"/>
  </defs>
  <g>
    <path class="cls-14" d="m183.1,562.55h-14.83c13.79,47.85,38.21,91.19,70.57,127.28,3.55-3.22,7.07-6.41,10.53-9.52-30.04-33.51-52.92-73.56-66.26-117.75Z"/>
    <path class="cls-8" d="m482,145.47c-142.38,0-263.45,91.14-308.11,218.26h15.41c44.1-118.51,158.23-202.93,292.1-202.93,104.26,0,196.54,51.21,253.1,129.84,4.52-2.94,8.87-5.84,13.02-8.67-59.24-82.64-156.1-136.5-265.54-136.5Z"/>
    <g>
      <path class="cls-3" d="m790.13,363.73c-3.96-11.28-8.53-22.28-13.65-32.95-3.38,3.3-7.36,7.14-11.92,11.41,3.24,7.04,6.23,14.23,8.95,21.54h16.62Z"/>
      <path class="cls-22" d="m779.73,562.55c-38.67,128.12-157.59,221.42-298.32,221.42-82.4,0-157.32-32-213.04-84.24-3.64,2.95-7.34,5.98-11.09,9.08,58.54,55.56,137.65,89.66,224.73,89.66,148.89,0,274.49-99.67,313.76-235.92h-16.03Z"/>
    </g>
  </g>
  <path class="cls-26" d="m568.5,527.47c0,71,5,146-41.98,135.64-21.02-4.63-84.11-61.07-110.53-88.05"/>
  <path class="cls-16" d="m193.62,523.21v-151.48c0-1.66-1.34-3-3-3h-26.94c-1.66,0-3,1.34-3,3v182.81c0,1.66,1.34,3,3,3h144.83c1.66,0,3-1.34,3-3v-25.33c0-1.66-1.34-3-3-3h-111.89c-1.66,0-3-1.34-3-3Z"/>
  <g id="NasaCore">
    <path class="cls-9" d="m725.23,366.75c30.67-26.08,50.36-46.19,56.27-52.28,22.65-23.37,40.6-42.08,59-71,16.02-25.18,25.96-47.98,32-64-12.77,15.17-31.06,35.33-55,57-9.45,8.55-48.47,43.31-112,80-32.7,18.89-57.14,29.59-106,51-34.08,14.93-80.22,33.98-137,54-49.11,17.32-50.03,15.56-116,38-53.67,18.25-86.38,29.38-124,45-36.82,15.29-87.09,38.51-145,73l9,3c18.95-10.73,46.8-25.22,82-39,24.34-9.53,43.44-15.3,56-19,75.69-22.33,130.32-33.77,186-48,47.21-12.07,89.99-23,139-41,71.62-26.3,126.79-56.75,163-79"/>
  </g>
  <path class="cls-16" d="m505.63,405.72v66.88c0,27.78-7.21,49.28-21.64,64.52-14.43,15.24-34.78,22.85-61.05,22.85s-46.43-7.62-60.8-22.85c-14.37-15.23-21.56-36.74-21.56-64.52v-100.87c0-1.66,1.34-3,3-3h26.95c1.66,0,3,1.34,3,3v102c0,17.12,4.3,30.36,12.92,39.73,8.61,9.37,20.78,14.05,36.5,14.05s28.07-4.68,36.74-14.05c8.67-9.37,13-22.61,13-39.73v-55.88"/>
  <path class="cls-16" d="m632.71,481.73.1.19l40.74,73.51c.53.95,1.53,1.55,2.62,1.55h32.07c2.32,0,3.76-2.52,2.59-4.52l-41.4-70.5c-.96-1.64-.17-3.73,1.62-4.35,3.39-1.19,6.63-2.63,9.7-4.34,6.04-3.36,11.29-7.51,15.76-12.46,5.19-5.76,8.91-12.51,11.48-19.82,2.4-6.83,2.35-24.02,0-31-2.5-7.39-6.21-14.33-11.46-20.1-4.44-4.88-9.67-8.99-15.7-12.32-10.23-5.65-22.18-8.48-35.85-8.48h-90.18c-1.66,0-3,1.34-3,3v182.4c0,1.66,1.34,3,3,3h26.94c1.66,0,3-1.34,3-3v-151.07c0-1.66,1.34-3,3-3h58.53c5.85,0,11.01,1.25,15.46,3.74,4.81,2.69,7.44,5.1,10.26,9.83,2.62,4.4,3.62,17.77,0,23-3.14,4.52-5.46,6.95-10.26,9.65-4.45,2.51-9.59,3.78-15.46,3.78h-31.33c-2.48,0-3.89,2.84-2.39,4.82l20.02,26.34c.09.11.17.24.24.36Z"/>
  <path class="cls-16" d="m805.85,371.74v182.79c0,1.66-1.35,3.01-3.01,3.01h-26.92c-1.66,0-3.01-1.35-3.01-3.01v-182.79c0-1.66,1.35-3.01,3.01-3.01h26.92c1.66,0,3.01,1.35,3.01,3.01Z"/>
  <g id="NasaCore-2" data-name="NasaCore">
    <path class="cls-10" d="m712.5,354.47c-20.42,17.12-51.94,42.75-92,72-16.92,12.36-27.3,19.47-123,83-75.41,50.06-104.54,69.27-149,101-22.9,16.35-34.35,24.52-48,35-23.65,18.15-110.95,98.46-128,117-.33,3.67-.67,7.33-1,11,17.77-16.49,42.9-39.14,74-65,44.69-37.16,80.55-63.37,113-87,17.83-12.98,53.34-38.52,99-69,27.19-18.15,32.82-21.26,84-55,34.79-22.94,52.18-34.4,72-48,43.75-30.01,65.62-45.02,94-68,6.26-5.07,12.18-9.99,17.73-14.72"/>
  </g>
  <path class="cls-1" d="m62.5,579.97c-6.9,0-12.5,5.6-12.5,12.5s5.6,12.5,12.5,12.5,12.5-5.6,12.5-12.5-5.6-12.5-12.5-12.5Zm0,21.05c-4.72,0-8.55-3.83-8.55-8.55s3.83-8.55,8.55-8.55,8.55,3.83,8.55,8.55-3.83,8.55-8.55,8.55Z"/>
  <circle class="cls-24" cx="36" cy="612.97" r="9"/>
  <path class="cls-17" d="m138.5,786.97c-6.9,0-12.5,5.6-12.5,12.5s5.6,12.5,12.5,12.5,12.5-5.6,12.5-12.5-5.6-12.5-12.5-12.5Zm0,21.05c-4.72,0-8.55-3.83-8.55-8.55s3.83-8.55,8.55-8.55,8.55,3.83,8.55,8.55-3.83,8.55-8.55,8.55Z"/>
  <circle class="cls-18" cx="167.5" cy="773.47" r="16.5"/>
  <circle class="cls-4" cx="118.5" cy="825.47" r="7.5"/>
  <path class="cls-6" d="m665.9,556.97c-18.53-48.19-49.22-94.37-91.27-137.3-44.13-45.06-93.37-81.82-138.63-103.49-44.12-21.13-81.11-26.46-104.16-15-4.47,2.22-10.58,6.03-14.13,9.5-16.69,16.35-16.56,42.98-13.52,62.44,4.1,26.23,15.94,56.85,34.36,89.05l-14.45,4.92c-18.51-32.87-30.46-64.35-34.73-91.65-5.15-32.9,1.02-59,17.84-75.47,6.5-6.37,16.09-11.3,17.94-12.22,27.67-13.76,68.23-8.61,117.32,14.9,46.8,22.41,97.54,60.24,142.87,106.52,44.36,45.29,76.55,94.21,95.69,145.41.29.79.97,2.39.97,2.39h-16.1Z"/>
  <rect class="cls-21" x="0" y="463.97" width="62" height="13.87" rx="6.94" ry="6.94" transform="translate(62 941.81) rotate(-180)"/>
  <rect class="cls-19" x="886.61" y="464.06" width="62" height="13.87" rx="6.94" ry="6.94"/>
  <rect class="cls-5" x="450.61" y="24.06" width="62" height="13.87" rx="6.94" ry="6.94" transform="translate(450.61 512.61) rotate(-90)"/>
  <rect class="cls-11" x="450.61" y="914.06" width="62" height="13.87" rx="6.94" ry="6.94" transform="translate(1402.61 439.39) rotate(90)"/>
  <path class="cls-7" d="m228,325.12c-.01,1.23,3.74.84,5.54,4.23,1.66,3.12.6,7.44,1.23,7.61.59.16.83-3.84,3.08-6.77,2.62-3.41,6.15-2.97,6.15-4.23,0-1.23-3.34-.86-5.54-4.23-1.94-2.97-1.61-6.72-2.46-6.77-.88-.05-.79,3.95-3.08,6.77-2.18,2.69-4.91,2.33-4.92,3.38Z"/>
  <path class="cls-2" d="m228.97,414.39c-.11,1.01,6.05.97,9,5,2.69,3.69.98,8.8,2,9,.95.19,1.17-5.19,5-8,4.13-3.04,9.7-1.09,10.03-2.42.33-1.36-5.68-2.28-9.03-7.58-2.04-3.23-2.06-6.45-2.97-6.42-1.03.04-.43,4.2-3,7-3.62,3.95-10.91,2.31-11.03,3.42Z"/>
  <path class="cls-13" d="m384.97,242.5c-.02.99,6.08.67,9.01,3.38,2.7,2.49.98,5.95,2,6.08.96.13,1.34-3.07,5.01-5.41,4.27-2.73,10-2.37,10.01-3.38.01-.98-5.43-.68-9.01-3.38-3.15-2.37-2.62-5.37-4-5.41-1.43-.04-1.29,3.16-5.01,5.41-3.54,2.15-7.99,1.86-8.01,2.7Z"/>
  <path class="cls-12" d="m397.87,620.81c-.02,1.46,6.07,1,9,5,2.69,3.69.98,8.8,2,9,.96.19,1.34-4.54,5-8,4.26-4.03,9.99-3.51,10-5,.01-1.45-5.42-1.01-9-5-3.15-3.51-2.61-7.94-4-8-1.43-.06-1.29,4.67-5,8-3.54,3.18-7.98,2.75-8,4Z"/>
  <path class="cls-15" d="m364.87,330.11c-.01,1.13,4.23.77,6.27,3.88,1.88,2.86.68,6.82,1.39,6.98.67.15.94-3.52,3.49-6.2,2.97-3.13,6.96-2.72,6.97-3.88,0-1.13-3.78-.79-6.27-3.88-2.2-2.72-1.82-6.15-2.79-6.2-1-.05-.9,3.62-3.49,6.2-2.47,2.46-5.57,2.13-5.58,3.1Z"/>
  <g>
    <path class="cls-20" d="m131.34,539.76c-4.09-21.6-6.23-43.89-6.23-66.69,0-196.86,159.59-356.45,356.45-356.45,119.27,0,224.86,58.58,289.56,148.54,11-8.18,19.99-15.39,26.87-21.14-70.82-97.67-185.85-161.19-315.73-161.19-215.25,0-389.74,174.49-389.74,389.74,0,28.58,3.08,56.44,8.92,83.27,10.28-5.73,20.26-11.09,29.91-16.09Z"/>
    <path class="cls-23" d="m136.47,562.68c-11.07,5.19-20.98,10.23-29.65,14.86,16.33,58.53,45.97,111.5,85.46,155.45,7.16-6.8,15.24-14.36,23.68-22.18-37.35-41.7-65.03-92.25-79.5-148.12Z"/>
    <path class="cls-25" d="m797.99,308.86c25.56,49.15,40.01,104.99,40.01,164.22,0,196.86-159.59,356.45-356.45,356.45-96.49,0-184.02-38.34-248.2-100.62-8.8,7.52-17,14.67-24.56,21.37,70.36,69.29,166.91,112.05,273.46,112.05,215.25,0,389.74-174.49,389.74-389.74,0-69.22-18.05-134.22-49.69-190.56-7.69,9.2-15.68,17.82-24.32,26.84Z"/>
  </g>
</svg>