<?xml version="1.0" encoding="UTF-8"?>
<svg id="Ebene_1" xmlns="http://www.w3.org/2000/svg" viewBox="0 0 1080 1080">
  <defs>
    <style>
      .cls-1 {
        fill: #fff;
      }
    </style>
  </defs>
  <path class="cls-1" d="M872.59,448.4v182.79c0,1.66-1.35,3.01-3.01,3.01h-26.92c-1.66,0-3.01-1.35-3.01-3.01v-182.79c0-1.66,1.35-3.01,3.01-3.01h26.92c1.66,0,3.01,1.35,3.01,3.01Z"/>
  <path class="cls-1" d="M892.5,310c-9.45,8.55-48.47,43.31-112,80-32.7,18.89-57.14,29.59-106,51-34.08,14.93-80.22,33.98-137,54-49.11,17.32-50.03,15.56-116,38-53.67,18.25-86.38,29.38-124,45-36.82,15.29-87.09,38.51-145,73l9,3c18.95-10.73,46.8-25.22,82-39,24.34-9.53,43.44-15.3,56-19,75.69-22.33,130.32-33.77,186-48,47.21-12.07,89.99-23,139-41,71.62-26.3,126.79-56.75,163-79-20.42,17.12-51.94,42.75-92,72-16.92,12.36-27.3,19.47-123,83-75.41,50.06-104.54,69.27-149,101-22.9,16.35-34.35,24.52-48,35-23.65,18.15-110.95,98.46-128,117-.33,3.67-.67,7.33-1,11,17.77-16.49,42.9-39.14,74-65,44.69-37.16,80.55-63.37,113-87,17.83-12.98,53.34-38.52,99-69,27.19-18.15,32.82-21.26,84-55,34.79-22.94,52.18-34.4,72-48,43.75-30.01,65.62-45.02,94-68,6.26-5.07,12.18-9.99,17.73-14.72,30.67-26.08,50.36-46.19,56.27-52.28,22.65-23.37,40.6-42.08,59-71,16.02-25.18,25.96-47.98,32-64-12.77,15.17-31.06,35.33-55,57Z"/>
  <path class="cls-1" d="M136.5,654c-6.9,0-12.5,5.6-12.5,12.5s5.6,12.5,12.5,12.5,12.5-5.6,12.5-12.5-5.6-12.5-12.5-12.5Z"/>
  <path class="cls-1" d="M223.5,849c-6.9,0-12.5,5.6-12.5,12.5s5.6,12.5,12.5,12.5,12.5-5.6,12.5-12.5-5.6-12.5-12.5-12.5Z"/>
  <rect class="cls-1" x="49" y="543.06" width="62" height="13.87" rx="6.94" ry="6.94" transform="translate(160 1100) rotate(180)"/>
  <rect class="cls-1" x="989" y="543.06" width="62" height="13.87" rx="6.94" ry="6.94"/>
  <rect class="cls-1" x="519" y="73.06" width="62" height="13.87" rx="6.94" ry="6.94" transform="translate(470 630) rotate(-90)"/>
  <rect class="cls-1" x="519" y="1013.06" width="62" height="13.87" rx="6.94" ry="6.94" transform="translate(1570 470) rotate(90)"/>
  <g>
    <path class="cls-1" d="M199.08,617.18c-4.09-21.6-6.23-43.89-6.23-66.69,0-196.86,159.59-356.45,356.45-356.45,119.27,0,224.86,58.58,289.56,148.54,11-8.18,19.99-15.39,26.87-21.14-70.82-97.67-185.85-161.19-315.73-161.19-215.25,0-389.74,174.49-389.74,389.74,0,28.58,3.08,56.44,8.92,83.27,10.28-5.73,20.26-11.09,29.91-16.09Z"/>
    <path class="cls-1" d="M204.21,640.1c-11.07,5.19-20.98,10.23-29.65,14.86,16.33,58.53,45.97,111.5,85.46,155.45,7.16-6.8,15.24-14.36,23.68-22.18-37.35-41.7-65.03-92.25-79.5-148.12Z"/>
    <path class="cls-1" d="M866.75,388.27c24.92,48.66,38.99,103.8,38.99,162.23,0,196.86-159.59,356.45-356.45,356.45-95.98,0-183.09-37.95-247.17-99.64-8.82,7.6-16.99,14.79-24.48,21.47,70.26,68.65,166.36,110.97,272.35,110.97,215.25,0,389.74-174.49,389.74-389.74,0-68.25-17.56-132.39-48.38-188.18-7.73,8.85-15.82,17.36-24.61,26.45Z"/>
  </g>
  <g>
    <g>
      <path class="cls-1" d="M251.09,640.58h-14.83c13.79,47.85,38.21,91.19,70.57,127.28,3.55-3.22,7.07-6.41,10.53-9.52-30.04-33.51-52.92-73.56-66.26-117.75Z"/>
      <path class="cls-1" d="M549.99,223.5c-142.38,0-263.45,91.14-308.11,218.26h15.41c44.1-118.51,158.23-202.93,292.1-202.93,104.26,0,196.54,51.21,253.1,129.84,4.52-2.94,8.87-5.84,13.02-8.67-59.24-82.64-156.1-136.5-265.54-136.5Z"/>
    </g>
    <path class="cls-1" d="M833.01,421.27c3.06,6.71,5.89,13.54,8.48,20.5h16.62c-3.82-10.86-8.2-21.45-13.1-31.76-3.54,3.39-7.55,7.17-12,11.26Z"/>
    <path class="cls-1" d="M549.4,862c-82.19,0-156.93-31.84-212.6-83.84-3.38,2.77-6.81,5.6-10.3,8.5-.25.21-.5.42-.76.63,58.49,55.29,137.4,89.21,224.24,89.21,148.89,0,274.49-99.67,313.76-235.92h-16.03c-38.67,128.12-157.59,221.42-298.32,221.42Z"/>
  </g>
  <path class="cls-1" d="M605.55,735.94c-8.04,0-14.55,6.52-14.55,14.55s6.52,14.55,14.55,14.55,14.55-6.52,14.55-14.55-6.52-14.55-14.55-14.55Z"/>
  <g>
    <path class="cls-1" d="M712.24,477.05h.78c.35,0,.68.02,1.03.03,1.11-.84,2.24-1.69,3.33-2.52-1.7.83-3.41,1.66-5.14,2.5Z"/>
    <path class="cls-1" d="M651.49,503.65c-6.83,2.7-13.83,5.38-20.99,8.01-4.03,1.48-8,2.9-11.95,4.28v27.8c13.85-9.22,24.49-16.34,32.95-22.02v-18.07Z"/>
    <path class="cls-1" d="M646.72,445.72h-25.18c-1.66,0-3,1.34-3,3v8.68c9.99-4.05,19.39-7.95,28.18-11.68Z"/>
    <path class="cls-1" d="M736.17,558.59c-.96-1.64-.17-3.73,1.62-4.35,3.39-1.19,6.63-2.63,9.7-4.34,6.04-3.36,11.29-7.51,15.76-12.46,5.19-5.76,8.91-12.51,11.48-19.82,2.4-6.83,2.35-24.02,0-31-1.4-4.15-3.2-8.14-5.42-11.87-9.22,7.04-18.47,13.77-28.87,21.12,1.11,5.84.93,13.95-1.71,17.75-3.14,4.52-5.46,6.95-10.26,9.65-4.45,2.51-9.59,3.78-15.46,3.78h-17.62c-.3.21-.59.41-.9.62-4.08,2.8-8.07,5.51-12.12,8.25l16.94,22.29c.09.11.17.24.24.36l40.74,73.51c.53.95,1.53,1.55,2.62,1.55h32.07c2.32,0,3.76-2.52,2.59-4.52l-41.4-70.5Z"/>
    <path class="cls-1" d="M622.5,575.66c-1.35.89-2.66,1.76-3.95,2.61v52.85c0,1.66,1.34,3,3,3h26.94c1.66,0,3-1.34,3-3v-74.59c-8.29,5.48-17.73,11.7-28.99,19.13Z"/>
  </g>
  <g>
    <path class="cls-1" d="M415.5,528.34c8.18-2.78,15.36-5.19,21.76-7.32v-71.64c0-1.66-1.34-3-3-3h-26.95c-1.66,0-3,1.34-3,3v82.76c3.63-1.24,7.35-2.5,11.18-3.8Z"/>
    <path class="cls-1" d="M566.42,578.39c1.96-8.53,2.95-17.91,2.95-28.14v-18.49c-11.02,3.24-21.96,6.28-32.95,9.23v10.39c0,9-1.2,16.92-3.59,23.78-2.16,6.19-5.3,11.51-9.41,15.95-8.67,9.37-20.91,14.05-36.74,14.05s-27.89-4.68-36.5-14.05c-6.03-6.56-9.94-15.02-11.75-25.38-10.48,2.53-21.15,5.12-32.16,7.83,3.02,16.8,9.55,30.55,19.6,41.21,12.74,13.51,30.13,21.01,52.15,22.54,22.77-15.39,49.39-33.03,88.4-58.92Z"/>
  </g>
  <g>
    <path class="cls-1" d="M394.73,535.41c3.12-1.06,6.31-2.15,9.58-3.27v-10.8c-13.06-25.77-21.58-50.14-24.93-71.57-3.05-19.46-6.08-50.65,10.61-67,3.55-3.48,9.56-7.72,14.03-9.94,23.04-11.46,63.03-1.13,107.16,20,32.62,15.62,65.83,39.31,98.36,68.19,6.01-2.4,11.81-4.75,17.42-7.06-35.98-31.74-73.78-57.65-109.3-74.66-49.08-23.51-89.65-28.66-117.32-14.9-1.85.92-11.44,5.85-17.94,12.22-16.82,16.48-22.99,42.57-17.84,75.47,3.91,24.99,14.25,53.47,30.17,83.32Z"/>
    <path class="cls-1" d="M670.24,496c-5.62,2.37-11.37,4.72-17.24,7.06,3.4,3.64,6.69,7.31,9.85,10.99,6.08-4.13,10.69-7.31,14.63-10.08-2.37-2.67-4.79-5.32-7.24-7.97Z"/>
    <path class="cls-1" d="M696.29,526.43c-.6.41-1.18.81-1.79,1.23-4.57,3.14-9.02,6.16-13.58,9.24,21.49,29.64,36.79,60.5,49.33,92.38,1.06,2.7,3.66,4.48,6.56,4.46l20.38-.13s-.67-1.6-.97-2.39c-13.54-36.23-33.64-71.32-59.94-104.79Z"/>
  </g>
  <path class="cls-1" d="M486.61,666.09c25.67,25.19,85.32,79.08,108.29,84.15l3.23-9.65c-15.96-3.52-66.85-51.14-99.03-83.17-4.33,2.99-8.49,5.88-12.49,8.67Z"/>
  <g>
    <path class="cls-1" d="M260.36,634.2h114.89c1.66,0,3-1.34,3-3v-25.33c0-1.66-1.34-3-3-3h-77.14c-12.2,3.69-28.63,8.97-48.61,16.8-7.73,3.03-15.08,6.09-22.09,9.13v2.4c0,1.66,1.34,3,3,3h29.94Z"/>
    <path class="cls-1" d="M260.36,586.84v-138.46c0-1.66-1.34-3-3-3h-26.94c-1.66,0-3,1.34-3,3v154.01c11.61-5.71,22.61-10.88,32.95-15.55Z"/>
  </g>
</svg>